<?xml version="1.0" standalone="no"?>
<!DOCTYPE svg PUBLIC "-//W3C//DTD SVG 1.1//EN" "http://www.w3.org/Graphics/SVG/1.1/DTD/svg11.dtd" >
<!--
2013-9-30: Created.
-->
<svg>
<metadata>
Created by iconfont
</metadata>
<defs>

<font id="iconfont" horiz-adv-x="1024" >
  <font-face
    font-family="iconfont"
    font-weight="500"
    font-stretch="normal"
    units-per-em="1024"
    ascent="896"
    descent="-128"
  />
    <missing-glyph />
    
    <glyph glyph-name="x" unicode="x" horiz-adv-x="1001"
d="M281 543q-27 -1 -53 -1h-83q-18 0 -36.5 -6t-32.5 -18.5t-23 -32t-9 -45.5v-76h912v41q0 16 -0.5 30t-0.5 18q0 13 -5 29t-17 29.5t-31.5 22.5t-49.5 9h-133v-97h-438v97zM955 310v-52q0 -23 0.5 -52t0.5 -58t-10.5 -47.5t-26 -30t-33 -16t-31.5 -4.5q-14 -1 -29.5 -0.5
t-29.5 0.5h-32l-45 128h-439l-44 -128h-29h-34q-20 0 -45 1q-25 0 -41 9.5t-25.5 23t-13.5 29.5t-4 30v167h911zM163 247q-12 0 -21 -8.5t-9 -21.5t9 -21.5t21 -8.5q13 0 22 8.5t9 21.5t-9 21.5t-22 8.5zM316 123q-8 -26 -14 -48q-5 -19 -10.5 -37t-7.5 -25t-3 -15t1 -14.5
t9.5 -10.5t21.5 -4h37h67h81h80h64h36q23 0 34 12t2 38q-5 13 -9.5 30.5t-9.5 34.5q-5 19 -11 39h-368zM336 498v228q0 11 2.5 23t10 21.5t20.5 15.5t34 6h188q31 0 51.5 -14.5t20.5 -52.5v-227h-327z" />
    

    
    <glyph glyph-name="you" unicode="&#58894;" d="M382.674944 748.290816 829.028352 301.959936 382.802944-147.690752 320.708608-86.107392 705.563648 301.703936 320.835584 686.451456Z"  horiz-adv-x="1024" />

    
    <glyph glyph-name="xia" unicode="&#58917;" d="M876.105 507.721h-729.819l368.786-437.102 361.033 437.102z"  horiz-adv-x="1024" />

    
    <glyph glyph-name="xia1" unicode="&#58951;" d="M938.586353 608.677647c-21.443765 21.473882-56.259765 21.473882-77.733647 0L496.670118 244.525176 132.517647 608.677647c-21.473882 21.473882-56.259765 21.473882-77.733647 0-10.782118-10.691765-16.112941-24.786824-16.112941-38.851765 0-14.064941 5.360941-28.129882 16.082824-38.881882L457.788235 127.939765c21.443765-21.473882 56.259765-21.473882 77.703529 0L938.586353 530.974118C960.060235 552.448 960.060235 587.203765 938.586353 608.677647z"  horiz-adv-x="1024" />

    
    <glyph glyph-name="icon4" unicode="&#58931;" d="M734.988142 895.395226 223.286947 383.699148 734.986095-128 796.39163-66.594465 346.095971 383.699148 796.389584 833.994808Z"  horiz-adv-x="1024" />

    
    <glyph glyph-name="down-copy" unicode="&#58880;" d="M358.507 417.688c-26.902-24.38-26.539-64.507 0.89-88.507l309.222-270.569c8.866-7.759 22.345-6.86 30.103 2.007 7.759 8.866 6.86 22.345-2.007 30.103l-309.222 270.569c-8.231 7.202-8.324 17.54-0.334 24.782l309.833 280.786c8.73 7.913 9.394 21.403 1.482 30.133-7.913 8.73-21.403 9.394-30.133 1.482l-309.833-280.786z"  horiz-adv-x="1024" />

    
    <glyph glyph-name="right" unicode="&#58881;" d="M380.711 15.945l358.552 358.568-358.976 358.989h-94.492l-0.406-0.41 358.559-358.578-358.547-358.569h95.31z"  horiz-adv-x="1024" />

    
    <glyph glyph-name="zuo-copy" unicode="&#58882;" d="M779.158 765.473v131.434l-558.735-513.566 558.734-512.776v130.637l-410.911 382.14 410.911 382.136z"  horiz-adv-x="1024" />

    
    <glyph glyph-name="xia-copy" unicode="&#58888;" d="M254.616 769.657l386.084-386.084-386.084-386.085 64.342-64.342 450.427 450.428-450.426 450.426-64.343-64.342zM254.616 769.657z"  horiz-adv-x="1025" />

    
    <glyph glyph-name="you1" unicode="&#59031;" d="M593.668021 387.919263 334.464561 128.715803 382.464785 80.715579 641.669268 339.919039 689.669492 387.919263 641.479957 436.108798 382.464785 695.12397 334.464561 647.123746 593.668021 387.919263Z"  horiz-adv-x="1024" />

    
    <glyph glyph-name="you2" unicode="&#58903;" d="M703.245879 384 248.972917 838.272962c-13.20938 13.20938-13.20938 34.610623 0 47.820003s34.610623 13.20938 47.78587 0L774.958817 407.892935c13.243513-13.20938 13.243513-34.610623 0-47.78587L296.758787-118.092965c-13.20938-13.20938-34.610623-13.20938-47.78587 0-13.20938 13.243513-13.20938 34.610623 0 47.820003L703.245879 384z"  horiz-adv-x="1024" />

    
    <glyph glyph-name="xia2" unicode="&#58904;" d="M35.174 598.511l53.289 53.296 424.578-424.574 424.574 424.574 53.292-53.296-477.867-477.867z"  horiz-adv-x="1024" />

    
    <glyph glyph-name="xia3" unicode="&#58899;" d="M492.50304 181.48864c10.39872-10.37824 28.68224-10.35264 38.9888 0l155.76576 155.85792a27.2896 27.2896 0 0 1 8.07424 19.39968 27.3664 27.3664 0 0 1-8.12032 19.49184c-5.17632 5.20192-12.06272 8.04864-19.39968 8.04864s-14.24896-2.87232-19.47136-8.07424l-108.7488-108.8V566.68672A27.61216 27.61216 0 0 1 512 594.2784a27.61216 27.61216 0 0 1-27.59168-27.59168v-299.27424l-108.8 108.82048c-10.35264 10.39872-28.4672 10.35264-38.87104-0.04608a27.1872 27.1872 0 0 1-8.07424-19.39968c0-7.33696 2.87232-14.24896 8.07424-19.47136l155.76576-155.8272zM951.83872 569.78944a475.39712 475.39712 0 0 1-102.29248 151.71072c-43.81696 43.81696-94.86336 78.23872-151.71072 102.29248-58.87488 24.9088-121.37472 37.504-185.82016 37.504-64.41472 0-126.94528-12.62592-185.82016-37.504a475.42784 475.42784 0 0 1-151.71072-102.29248C130.66752 677.6832 96.24576 626.6368 72.192 569.78944 47.2832 510.91456 34.65728 448.41472 34.65728 384s12.62592-126.94528 37.53472-185.78944c24.05376-56.84736 58.4448-107.86304 102.29248-151.71072 43.81696-43.81696 94.86336-78.23872 151.71072-102.29248 58.87488-24.9088 121.37472-37.504 185.82016-37.504 64.41472 0 126.94528 12.62592 185.82016 37.504a475.50976 475.50976 0 0 1 151.71072 102.29248c43.81696 43.81696 78.23872 94.86336 102.29248 151.71072 24.9088 58.87488 37.504 121.37472 37.504 185.78944s-12.62592 126.91456-37.504 185.78944z m-439.79776-611.70176c-234.86464 0-425.93792 191.04768-425.93792 425.91232s191.07328 425.91232 425.93792 425.91232c234.83904-0.03072 425.91232-191.07328 425.91232-425.91232s-191.07328-425.91232-425.91232-425.91232z"  horiz-adv-x="1024" />

    
    <glyph glyph-name="xia4" unicode="&#59014;" d="M222.450395 524.810003c9.394974-1.294482 13.796214-8.063653 19.061124-13.31833 82.942037-82.788541 165.733649-165.727509 248.684896-248.506841 23.356964-23.308869 18.154475-22.989597 41.857317 0.656963 82.512249 82.316797 165.174923 164.489308 246.98109 247.504 13.58439 13.784958 21.428032 14.136975 34.840507-0.054235 31.860638-33.711799 32.580023-33.032324 0.277316-65.336054-95.924723-95.925746-192.046944-191.657065-287.527553-288.023856-12.010545-12.121062-19.013029-13.427824-31.776727-0.533143-101.263311 102.295827-203.082278 204.044186-305.305451 305.381176-12.311397 12.204973-14.20656 20.655436-0.212848 31.91078 8.389064 6.747681 15.34857 15.248286 23.186072 22.714328 3.145643 2.997264 6.922666 5.330402 9.934257 7.605212z"  horiz-adv-x="1024" />

    
    <glyph glyph-name="xiafan" unicode="&#58889;" d="M541.38 149.595l406.918 406.92c16.9 16.897 16.9 44.296 0 61.195-16.899 16.9-44.296 16.9-61.195 0l-376.322-376.322-373.231 373.234c-16.901 16.898-44.298 16.899-61.197 0-16.898-16.899-16.9-44.298 0-61.197l400.476-400.476c0.563-0.563 1.14-1.104 1.724-1.629 0.526-0.586 1.066-1.163 1.63-1.725 16.898-16.898 44.297-16.898 61.196 0.001z"  horiz-adv-x="1024" />

    
    <glyph glyph-name="zuo-" unicode="&#58890;" d="M686.3-50.3L280.1 356c-8 8-11.9 17.9-11.9 27.9s4 20.9 11.9 27.9L686.3 819c14.9 14.9 40.8 17.9 56.8 3 16.9-14.9 16.9-41.8 1-57.8L363.7 383.8v-1l380.4-380.4c15.9-15.9 15.9-41.8-1-57.8-16-12.8-40.9-10.8-56.8 5.1z"  horiz-adv-x="1024" />

    
    <glyph glyph-name="caretright" unicode="&#58891;" d="M402.286 676.57q14.856 0 25.714-10.858l256-256q10.857-10.857 10.858-25.714t-10.858-25.714l-256-256q-10.857-10.857-25.714-10.858t-25.714 10.858-10.858 25.714v512q0 14.856 10.858 25.714t25.714 10.858z"  horiz-adv-x="1024" />

    
    <glyph glyph-name="zuo" unicode="&#58937;" d="M277.617 355.294l406.92-406.919c16.897-16.9 44.296-16.9 61.194 0 16.901 16.899 16.9 44.296 0 61.194L369.41 385.891l373.233 373.231c16.898 16.901 16.898 44.298 0 61.197-16.898 16.898-44.297 16.9-61.196 0L280.971 419.842a43.853 43.853 0 0 1-1.629-1.724 43.252 43.252 0 0 1-1.725-1.63c-16.898-16.897-16.898-44.296 0-61.194z"  horiz-adv-x="1024" />

    
    <glyph glyph-name="you3" unicode="&#59001;" d="M277.77647-127.999795a52.488844 52.488844 0 0 0-37.108773 89.618096L663.035982 383.986586 240.667697 806.354871A52.488844 52.488844 0 0 0 314.905723 880.592896l459.497537-459.497537a52.488844 52.488844 0 0 0 0-74.238025L314.905723-112.619724a52.325008 52.325008 0 0 0-37.129253-15.380071"  horiz-adv-x="1024" />

    
    <glyph glyph-name="top" unicode="&#58892;" d="M512.371 561.621l388.494-388.429c22.906-22.906 60.043-22.905 82.915 0 22.906 22.906 22.906 60.011 0 82.915l-429.968 429.903c-22.906 22.906-60.043 22.905-82.915 0l-429.903-429.903c-11.437-11.469-17.155-26.471-17.155-41.474s5.718-30.005 17.187-41.442c22.906-22.906 60.011-22.906 82.915 0l388.429 388.429z"  horiz-adv-x="1024" />

    
    <glyph glyph-name="zuo1" unicode="&#58939;" d="M739.038 878.031c13.015 0 26.020-4.978 35.941-14.893 19.869-19.869 19.869-52.002 0-71.872l-391.948-391.95 397.633-397.636c19.873-19.866 19.873-51.999 0-71.872-19.869-19.873-51.999-19.873-71.872 0l-433.571 433.574c-19.873 19.873-19.873 51.999 0 71.872l427.878 427.881c9.181 9.201 21.877 14.896 35.902 14.896 0.013 0 0.025 0 0.037 0z"  horiz-adv-x="1024" />

    
    <glyph glyph-name="xia5" unicode="&#58974;" d="M950.972 635.791c-14.704 14.78-38.562 14.78-53.266 0l-385.686-423.201-385.725 423.201c-14.704 14.78-38.563 14.78-53.268 0s-14.704-38.75 0-53.528l410.446-450.354c7.84-7.878 18.268-11.253 28.509-10.73 10.276-0.524 20.669 2.851 28.509 10.73l410.483 450.394c14.703 14.776 14.703 38.708-0.002 53.488z"  horiz-adv-x="1024" />

    
    <glyph glyph-name="zuo2" unicode="&#58953;" d="M345.48 365.598l364.152 364.213c21.474 21.474 21.474 56.29 0 77.733-21.474 21.474-56.26 21.474-77.734 0L228.864 404.45c-21.474-21.474-21.474-56.29 0-77.734l403.034-403.034c10.752-10.722 24.817-16.083 38.882-16.083 14.065 0 28.13 5.361 38.852 16.113 21.474 21.474 21.474 56.26 0 77.734L345.48 365.598z"  horiz-adv-x="1024" />

    
    <glyph glyph-name="you4" unicode="&#59095;" d="M691.2 403.911111c0 2.844444-2.844444 2.844444 0 0L403.911111 705.422222c-14.222222 17.066667-39.822222 17.066667-56.888889 0-17.066667-14.222222-17.066667-39.822222 0-56.888889l258.844445-270.222222-270.222223-258.844444c-17.066667-14.222222-17.066667-39.822222 0-56.888889 14.222222-17.066667 39.822222-17.066667 56.888889 0l298.666667 284.444444c2.844444 2.844444 5.688889 8.533333 8.533333 14.222222 5.688889 14.222222 2.844444 31.288889-8.533333 42.666667z"  horiz-adv-x="1024" />

    
    <glyph glyph-name="you5" unicode="&#58893;" d="M266.239 291.84l61.44-61.44 184.32 184.32 184.32-184.32 61.44 61.44-245.76 245.76-61.44-61.44z"  horiz-adv-x="1024" />

    
    <glyph glyph-name="xia6" unicode="&#58895;" d="M657.379 383.929c-2.757 2.234-4.389 3.33-5.754 4.694-114.638 114.627-229.243 229.288-343.901 343.896-8.742 8.738-12.488 18.795-8.966 30.852 5.906 20.226 31.061 27.312 47.085 13.4 1.098-0.954 2.109-2.008 3.137-3.037 122.285-122.312 244.549-244.642 366.886-366.901 8.566-8.562 13.085-18.402 9.392-30.192-1.706-5.445-5.223-10.869-9.283-14.945-72.008-72.355-144.226-144.501-216.398-216.691-50.331-50.344-100.656-100.696-151.003-151.022-11.566-11.562-26.888-13.195-39.091-4.289-13.778 10.059-16.080 29.451-4.995 42.418 1.469 1.718 3.11 3.291 4.712 4.893 114.157 114.192 228.317 228.383 342.502 342.547 1.356 1.357 3.054 2.372 5.677 4.376z"  horiz-adv-x="1024" />

    
    <glyph glyph-name="zuo3" unicode="&#58908;" d="M517.602 217.48l-364.213 364.152c-21.474 21.474-56.29 21.473-77.734 0-21.474-21.474-21.474-56.26 0-77.734l403.095-403.034c21.474-21.474 56.29-21.473 77.734 0l403.034 403.034c10.722 10.752 16.083 24.817 16.083 38.882s-5.361 28.13-16.113 38.852c-21.474 21.474-56.26 21.474-77.734 0l-364.152-364.152z"  horiz-adv-x="1024" />

    
    <glyph glyph-name="xia7" unicode="&#59089;" d="M839.585 569.749c-0.556 0.049-1.204 0.077-1.858 0.077-6.631 0-12.587-2.893-16.674-7.485-31.406-32.505-62.912-64.939-94.347-97.398l-222.946-230.162c-0.738-0.762-1.405-1.619-2.81-3.239-0.905 1.31-1.334 2.215-2 2.905-100.233 103.519-200.513 207.015-300.794 310.534-5.906 6.096-11.693 12.288-17.718 18.241-6.739 6.692-14.836 8.406-23.647 5.001-8.047-3.27-13.618-11.028-13.618-20.087 0-5.208 1.841-9.986 4.909-13.719 0.756-0.939 1.661-1.844 2.518-2.749 111.187-114.759 222.375-229.543 333.514-344.326 3.167-3.286 6.62-6.096 11.097-7.239 8.192-2.096 15.479-0.357 21.48 5.692 6.406 6.43 12.645 12.979 18.932 19.48 105.448 108.806 210.849 217.66 316.273 326.465 3.763 3.882 6.382 8.263 7.168 13.693 1.691 11.812-7.597 23.457-19.48 24.314z"  horiz-adv-x="1024" />

    
    <glyph glyph-name="shang" unicode="&#58896;" d="M958.073 586.611l-446.078-446.078-446.072 446.078h892.15zM958.073 586.611z"  horiz-adv-x="1024" />

    
    <glyph glyph-name="you-copy" unicode="&#58897;" d="M295.36 383.168c0-8.127 3.84-15.36 9.792-20.032l357.376-357.44c4.608-4.608 11.008-7.424 18.047-7.424 14.080 0 25.472 11.392 25.472 25.472 0 7.040-2.816 13.44-7.488 18.048v0l-341.504 341.568 341.504 341.504c4.608 4.608 7.488 11.008 7.488 18.048 0 14.080-11.392 25.472-25.472 25.472-7.040 0-13.376-2.88-18.048-7.488v0l-360.511-360.64c-4.16-4.48-6.656-10.496-6.656-17.089z"  horiz-adv-x="1024" />

    
    <glyph glyph-name="you-copy-copy" unicode="&#58898;" d="M728.64 384.832c0 8.127-3.84 15.36-9.792 20.032l-357.376 357.44c-4.608 4.608-11.008 7.424-18.047 7.424-14.080 0-25.472-11.392-25.472-25.472 0-7.040 2.816-13.44 7.488-18.048v0l341.504-341.568-341.504-341.504c-4.608-4.608-7.488-11.008-7.488-18.048 0-14.080 11.392-25.472 25.472-25.472 7.040 0 13.376 2.88 18.048 7.488v0l360.511 360.64c4.16 4.48 6.656 10.496 6.656 17.089z"  horiz-adv-x="1024" />

    
    <glyph glyph-name="zuo4" unicode="&#58914;" d="M713.216-56.32c11.776-10.752 30.72-10.24 41.472 2.048s10.24 30.72-2.048 41.472L325.632 373.76c-10.752 10.24-10.752 24.064 0.512 34.304l425.984 372.736c12.288 10.752 13.312 29.184 2.56 41.472-10.752 12.288-29.184 13.312-41.472 2.56L287.232 452.096c-37.888-33.28-38.4-88.576-1.024-121.856l427.008-386.56z"  horiz-adv-x="1024" />

    
    <glyph glyph-name="xia8" unicode="&#58900;" d="M1001.69697 643.620202c-15.90303 15.90303-41.761616 15.90303-57.664647 0L511.935354 211.523232 79.967677 643.620202c-15.90303 15.90303-41.761616 15.90303-57.664647 0-15.90303-15.90303-15.90303-41.761616 0-57.664646l460.8-460.929293c15.90303-15.90303 41.761616-15.90303 57.664647 0l460.929293 460.929293c15.90303 16.032323 15.90303 41.761616 0 57.664646z"  horiz-adv-x="1024" />

    
    <glyph glyph-name="arrow_up" unicode="&#58901;" d="M71.168 217.907l429.107 429.056 428.058-428.032c7.501-7.501 19.66-7.501 27.161 0s7.501 19.66 0 27.161l-441.626 441.626c-3.738 3.738-8.653 5.632-13.568 5.631s-9.829-1.869-13.568-5.631l-442.7-442.675c-7.501-7.501-7.501-19.66 0-27.161s19.635-7.476 27.136 0.025z"  horiz-adv-x="1024" />

    
    <glyph glyph-name="zuo5" unicode="&#59253;" d="M363.84256 423.01952c-26.90048-24.38144-26.53696-64.50688 0.89088-88.50944l309.2224-270.5664a21.33504 21.33504 0 0 1 28.09856 32.11264l-309.2224 270.5664c-8.23296 7.20384-8.32512 17.54112-0.3328 24.7808l309.83168 280.78592a21.32992 21.32992 0 1 1-28.65152 31.61088l-309.8368-280.7808z"  horiz-adv-x="1024" />

    
    <glyph glyph-name="shang1" unicode="&#58902;" d="M495.4209999999999 382.6470000000005l225.82900000000026-250.5079999999998-416.979-1.1368683772161603e-13 191.1499999999998 250.50700000000023zM495.4209999999999 382.6470000000005z"  horiz-adv-x="1024" />

    
    <glyph glyph-name="release" unicode="&#58883;" d="M723.269818 896H292.445091C130.932364 896 0 765.067636 0 603.5316359999999V172.68363599999998c0-161.512727 130.932364-292.445091 292.445091-292.445091h430.824727c161.559273 0 292.445091 130.932364 292.445091 292.445091V603.5316359999999C1015.738182 765.067636 884.852364 896 723.269818 896m123.927273-564.852364h-288.814546v-288.837818h-116.619636V331.14763600000003H152.948364V447.767273h288.814545V736.581818h116.619636v-288.814545h288.814546v-116.619637z"  horiz-adv-x="1024" />

    
    <glyph glyph-name="my" unicode="&#58884;" d="M511.892837 306.890419a288.291721 288.291721 0 0 0-205.085767 84.968186 288.125023 288.125023 0 0 0-84.968186 205.085767c0 77.514419 30.148465 150.337488 84.968186 205.109581A288.005953 288.005953 0 0 0 511.892837 887.045953c77.490605 0 150.313674-30.172279 205.109582-84.992 113.092465-113.092465 113.092465-297.102884 0-410.195348a288.386977 288.386977 0 0 0-205.109582-84.968186m0 532.861023a241.187721 241.187721 0 0 1-171.650977-71.108465 241.140093 241.140093 0 0 1-71.108465-171.674791c0-64.821581 25.242791-125.785302 71.108465-171.650977a241.187721 241.187721 0 0 1 171.650977-71.108465c64.845395 0 125.809116 25.290419 171.674791 71.108465 94.660465 94.636651 94.660465 248.665302 0 343.325768a241.306791 241.306791 0 0 1-171.674791 71.108465M981.504-111.520744H42.496a23.623442 23.623442 0 0 0-23.647256 23.647256c0 131.691163 51.295256 255.499907 144.407814 348.612465 28.314791 28.338605 61.20186 42.10307 100.518698 42.10307 40.72186 0 83.086884-15.217116 124.02307-29.93414 41.150512-14.788465 83.706047-30.077023 124.094511-30.077023 40.364651 0 82.920186 15.288558 124.070698 30.077023 40.96 14.717023 83.301209 29.93414 124.046884 29.93414 39.293023 0 72.156279-13.740651 100.518697-42.10307a489.853023 489.853023 0 0 0 144.384-345.183256 23.647256 23.647256 0 0 0-23.409116-27.076465M66.762419-64.250047h890.260837a442.391814 442.391814 0 0 1-129.952744 291.530419c-19.265488 19.265488-40.555163 28.243349-67.036279 28.243349-32.482233 0-69.203349-13.19293-108.043907-27.147907-44.984558-16.14586-91.445581-32.863256-140.097489-32.863256-48.628093 0-95.136744 16.717395-140.073674 32.863256-38.840558 13.954977-75.53786 27.147907-108.043907 27.147907-26.481116 0-47.770791-8.97786-67.036279-28.243349a442.153674 442.153674 0 0 1-129.976558-291.530419"  horiz-adv-x="1024" />

    
    <glyph glyph-name="course" unicode="&#58885;" d="M140.777739 896C94.118957 896 55.652174 857.555478 55.652174 810.896696v-737.480348c0-46.658783 38.444522-85.125565 85.103304-85.125565h252.171131c-15.270957-22.572522-25.243826-51.133217-25.243826-85.058783 0-15.649391 12.666435-28.360348 28.360347-28.360348h538.935653c15.62713 0 28.338087 12.710957 28.338087 28.360348 0 41.360696-14.625391 75.108174-35.906783 99.261217-21.25913 24.197565-47.972174 39.379478-72.681739 50.977392-24.687304 11.620174-47.994435 20.079304-62.486261 27.469913a58.167652 58.167652 0 0 0-12.844522 8.414608c0.601043 16.539826 9.238261 30.118957 23.485218 52.758261 14.736696 23.485217 32.790261 56.097391 32.79026 101.509566 0 68.118261-41.20487 126.642087-99.283478 153.800347V669.072696a28.271304 28.271304 0 0 1-8.414608 20.390956L529.430261 888.030609A28.582957 28.582957 0 0 1 509.484522 896H140.777739z m0-56.742957H452.786087v-170.184347c0-15.649391 12.710957-28.360348 28.360348-28.360348h184.386782c4.941913-0.089043 9.839304 1.135304 14.180174 3.539478v-231.357217c-4.674783 0.400696-9.438609 0.890435-14.180174 0.890434a169.160348 169.160348 0 0 1-111.682782-42.540521H211.656348a28.40487 28.40487 0 1 1 0-56.720696h299.631304a166.800696 166.800696 0 0 1-15.983304-70.92313c0-10.061913 1.135304-19.545043 2.671304-28.360348H211.656348a28.40487 28.40487 0 1 1 0-56.742957h306.710261c3.250087-5.89913 6.589217-11.353043 9.750261-16.384 14.224696-22.661565 22.861913-36.218435 23.485217-52.758261a58.523826 58.523826 0 0 0-12.866783-8.414608c-14.447304-7.390609-37.776696-15.849739-62.464-27.469913-5.320348-2.470957-10.551652-5.520696-15.961043-8.43687H140.777739a27.714783 27.714783 0 0 0-28.360348 28.382609V810.896696a27.670261 27.670261 0 0 0 28.360348 28.360347m368.751304-11.508869l130.29287-130.29287h-130.29287V827.7481740000001zM209.029565 527.248696a28.40487 28.40487 0 0 1 2.649044-56.742957h368.751304a28.360348 28.360348 0 0 1 0.801391 56.742957H211.656348a51.667478 51.667478 0 0 1-2.626783 0m456.481392-170.184348c61.261913 0 113.463652-51.311304 113.463652-113.463652 0-31.432348-10.306783-49.664-23.930435-71.346087-13.601391-21.726609-32.812522-47.593739-32.812522-84.680348 0-14.825739 7.346087-28.360348 15.961044-37.264696 8.637217-8.815304 18.320696-14.781217 28.382608-19.923478 20.079304-10.262261 42.852174-17.853217 64.24487-27.937391 21.414957-10.061913 40.759652-22.105043 54.093913-37.197913 8.102957-9.238261 13.57913-20.613565 17.252174-33.702957H428.855652c3.695304 13.089391 9.171478 24.464696 17.296696 33.702957 13.289739 15.09287 32.634435 27.136 54.071652 37.197913 21.392696 10.084174 44.143304 17.67513 64.24487 27.937391 10.061913 5.12 19.745391 11.085913 28.360347 19.923478 8.637217 8.882087 15.961043 22.438957 15.961044 37.264696 0 37.086609-19.166609 62.953739-32.812522 84.680348-13.601391 21.682087-23.908174 39.913739-23.908174 71.346087 0 62.152348 52.201739 113.463652 113.441392 113.463652"  horiz-adv-x="1024" />

    
    <glyph glyph-name="activity" unicode="&#58886;" d="M1202.886076 613.265823a21.620253 21.620253 0 0 1 11.265823 3.392405l126.075949 73.164557c11.240506 6.759494 14.632911 20.278481 7.898734 30.405063-6.78481 11.265823-20.253165 14.632911-30.405063 7.873418l-126.075949-72.050633c-11.240506-6.759494-14.632911-20.253165-7.898735-30.405063a20.835443 20.835443 0 0 1 19.139241-12.379747M1339.113924 259.772152l-124.962025 72.050633c-11.265823 5.620253-24.78481 2.253165-30.405064-7.898734s-2.253165-24.78481 7.898735-30.379747l126.075949-72.07595a21.797468 21.797468 0 0 1 11.240506-3.392405c7.898734 0 15.772152 4.531646 19.164557 11.265823 5.620253 11.265823 2.253165 24.78481-9.012658 30.43038M1338 497.316456l-145.240506-1.139241c-12.35443 0-22.506329-10.126582-22.506329-22.531645 0-12.35443 10.126582-22.481013 22.506329-22.481013l145.240506 1.113924c12.379747 0 22.506329 10.126582 22.506329 22.506329a21.898734 21.898734 0 0 1-22.506329 22.531646M1049.772152 545.721519h-46.151899V864.329114a22.278481 22.278481 0 0 1-13.518987 20.278481c-7.873418 3.367089-18 2.253165-23.64557-3.392405-144.101266-126.075949-328.734177-195.898734-518.987342-195.898734H222.278481c-117.088608 0-212.78481-95.670886-212.78481-212.759494v-15.772152c0-117.088608 95.696203-212.78481 212.78481-212.78481 2.253165 0 4.506329 0 6.78481 1.113924h78.78481v-258.936709c0-28.126582 11.265823-54.050633 30.405064-74.303797a104.860759 104.860759 0 0 1 73.189873-30.405064h1.113924c57.417722 0 104.708861 47.291139 104.708861 105.822785v190.278481a22.607595 22.607595 0 0 1-22.531646 22.531646c-12.405063 0-22.506329-10.126582-22.506329-22.531646v-190.278481c0-33.772152-27.012658-60.759494-59.670886-60.759493a57.721519 57.721519 0 0 0-41.64557 16.886076 59.392405 59.392405 0 0 0-18.025316 42.759493V245.113924h100.202532c188 0 370.379747-66.405063 513.367088-186.886076 4.506329-3.367089 9.012658-5.64557 14.632912-5.64557a20.860759 20.860759 0 0 1 8.987341 2.278481 22.177215 22.177215 0 0 1 13.518988 20.253165v319.746835h47.291139a75.417722 75.417722 0 0 1 75.417721 75.443038c0 20.253165-7.924051 39.392405-22.531645 52.936709a75.746835 75.746835 0 0 1-54 22.481013M54.531646 456.78481v15.772152c0 84.43038 63.063291 155.341772 145.240506 166.607595v-347.873418c-82.177215 10.151899-145.240506 81.037975-145.240506 165.493671m398.556962-166.632911H244.810127V640.303797h202.658227c185.721519 0 365.873418 61.898734 511.113924 175.620254v-693.518988a848.708861 848.708861 0 0 1-505.49367 167.746836m596.683544 149.746835h-46.151899v60.78481h47.291139a30.683544 30.683544 0 0 0 30.379747-30.379747c-1.113924-16.886076-14.632911-30.405063-31.518987-30.405063"  horiz-adv-x="1385" />

    
    <glyph glyph-name="teacher" unicode="&#58887;" d="M1000-121.56799999999998l-58.176 3.648 11.424 182.208 58.208-3.648zM1526.496-119.29600000000005l-11.488 182.208 58.144 3.68 11.52-182.24zM1041.28 674.56c0-120.384 101.024-221.44 221.44-221.44s221.408 101.056 221.408 221.44c0 120.448-100.992 221.44-221.408 221.44-120.416 0-221.44-97.088-221.44-221.44m384.576 0c0-89.344-73.824-163.136-163.136-163.136-89.344 0-163.136 73.792-163.136 163.136 0 89.376 73.792 163.168 163.136 163.168 89.312 3.872 163.136-69.92 163.136-163.168M2505.76 142.36800000000005c0 34.976-11.648 69.952-31.072 108.768s-54.368 66.048-97.12 81.568l-151.456 54.432-132.096-244.768h-34.976l-132.064 244.768-236.96-85.472c-23.328 34.944-58.24 58.272-97.088 73.824l-163.168 58.272-143.712-268.032h-42.752l-143.712 268.032-167.04-58.272c-38.848-15.52-73.792-38.88-97.12-73.824l-236.96 85.472-132.064-244.768h-34.976l-132.064 244.768-151.488-54.432c-42.752-15.488-77.696-42.72-97.12-81.568-19.424-35.008-31.072-73.824-31.072-104.896 0 0-15.552-135.904-19.424-264.128l58.24-3.84c3.904 128.16 19.424 260.224 19.424 264.096 0 23.328 7.808 50.496 23.328 77.696a151.808 151.808 0 0 0 66.016 54.4l104.896 38.88 124.32-233.088h104.864l124.32 233.088 182.592-66.048a197.344 197.344 0 0 1-15.552-77.728s-15.552-147.584-23.296-291.296l58.272-3.904c3.872 139.808 23.296 287.424 23.296 291.328 0 35.008 15.52 66.048 27.2 89.376 15.52 27.2 42.72 50.496 73.792 62.144l116.512 42.72 135.968-256.384h116.544l135.968 256.384 116.544-42.72c31.104-11.648 58.272-34.976 73.824-62.144 11.616-19.424 27.2-54.368 27.2-93.248 0 0 15.52-147.616 23.296-287.424l58.272 3.904c-3.872 143.68-23.328 287.392-23.328 287.392 0 27.2-3.872 54.368-15.52 81.6l178.688 66.048 124.32-233.088h104.896l124.288 233.088 104.896-38.88c27.2-11.68 54.368-31.072 66.016-54.4 15.52-27.2 23.328-54.368 23.328-81.568 0 0 15.488-132.064 19.392-260.224l58.272 3.84c-0.032 128.224-15.584 260.256-15.584 260.256M2358.397138 49.640056999999956l10.505986-166.709285-58.15663-3.665019-10.505986 166.709285zM2074.56 837.728c-116.544 0-213.632-97.088-213.632-213.632 0-116.576 97.088-213.664 213.632-213.664 116.576 0 213.696 97.088 213.696 213.664 0 116.544-97.12 213.632-213.696 213.632m0-369.024a155.84 155.84 0 0 0-155.36 155.392 155.84 155.84 0 0 0 155.36 155.36 155.808 155.808 0 0 0 155.36-155.36 155.808 155.808 0 0 0-155.36-155.392M166.098909 51.22918600000003l58.125013-3.657935-10.489428-166.678265-58.125013 3.657935zM450.848 410.432c116.544 0 213.632 97.088 213.632 213.664 0 116.544-97.088 213.632-213.632 213.632S237.184 740.64 237.184 624.096a213.024 213.024 0 0 1 213.664-213.664m0 369.024c85.44 0 155.392-69.92 155.392-155.36 0-85.472-69.952-155.392-155.392-155.392s-155.392 69.92-155.392 155.392c0 85.44 69.952 155.36 155.392 155.36"  horiz-adv-x="2528" />

    


  </font>
</defs>
</svg>
